<svg width="24" height="25" viewBox="0 0 24 25" fill="none" xmlns="http://www.w3.org/2000/svg">
<path d="M16.9997 9.67C16.8123 9.48375 16.5589 9.37921 16.2947 9.37921C16.0305 9.37921 15.7771 9.48375 15.5897 9.67L11.9997 13.21L8.4597 9.67C8.27234 9.48375 8.01889 9.37921 7.7547 9.37921C7.49052 9.37921 7.23707 9.48375 7.0497 9.67C6.95598 9.76297 6.88158 9.87357 6.83081 9.99543C6.78004 10.1173 6.75391 10.248 6.75391 10.38C6.75391 10.512 6.78004 10.6427 6.83081 10.7646C6.88158 10.8864 6.95598 10.997 7.0497 11.09L11.2897 15.33C11.3827 15.4237 11.4933 15.4981 11.6151 15.5489C11.737 15.5997 11.8677 15.6258 11.9997 15.6258C12.1317 15.6258 12.2624 15.5997 12.3843 15.5489C12.5061 15.4981 12.6167 15.4237 12.7097 15.33L16.9997 11.09C17.0934 10.997 17.1678 10.8864 17.2186 10.7646C17.2694 10.6427 17.2955 10.512 17.2955 10.38C17.2955 10.248 17.2694 10.1173 17.2186 9.99543C17.1678 9.87357 17.0934 9.76297 16.9997 9.67Z" fill="#6B6E75"/>
</svg>
