<svg width="25" height="25" viewBox="0 0 25 25" fill="none" xmlns="http://www.w3.org/2000/svg">
<rect x="0.482422" y="0.5" width="24" height="24" rx="12" fill="#3772FF"/>
<path d="M15.8751 6.37996C15.2619 5.87569 14.5439 5.51465 13.7735 5.32319C13.0031 5.13174 12.1996 5.11469 11.4217 5.2733C10.386 5.48251 9.43572 5.99468 8.69152 6.74482C7.94732 7.49496 7.44271 8.44925 7.24173 9.48663C7.09496 10.2644 7.12163 11.0651 7.31984 11.8314C7.51805 12.5977 7.88291 13.3109 8.3884 13.92C8.85752 14.4493 9.12642 15.1263 9.1484 15.8333V17.8333C9.1484 18.3637 9.35911 18.8724 9.73419 19.2475C10.1093 19.6226 10.618 19.8333 11.1484 19.8333H13.8151C14.3455 19.8333 14.8542 19.6226 15.2293 19.2475C15.6044 18.8724 15.8151 18.3637 15.8151 17.8333V15.96C15.8374 15.1794 16.1242 14.4296 16.6284 13.8333C17.5118 12.7405 17.9282 11.3432 17.7872 9.94505C17.6461 8.54692 16.959 7.26096 15.8751 6.36663V6.37996ZM14.4817 17.8333C14.4817 18.0101 14.4115 18.1797 14.2865 18.3047C14.1614 18.4297 13.9919 18.5 13.8151 18.5H11.1484C10.9716 18.5 10.802 18.4297 10.677 18.3047C10.552 18.1797 10.4817 18.0101 10.4817 17.8333V17.1666H14.4817V17.8333ZM15.5951 13.0066C14.9247 13.8017 14.5336 14.7947 14.4817 15.8333H13.1484V13.8333C13.1484 13.6565 13.0782 13.4869 12.9531 13.3619C12.8281 13.2369 12.6585 13.1666 12.4817 13.1666C12.3049 13.1666 12.1354 13.2369 12.0103 13.3619C11.8853 13.4869 11.8151 13.6565 11.8151 13.8333V15.8333H10.4817C10.4641 14.812 10.0864 13.8298 9.41507 13.06C8.97216 12.5293 8.67433 11.8929 8.55061 11.2129C8.42689 10.5328 8.4815 9.83231 8.70912 9.17965C8.93675 8.52699 9.32961 7.94446 9.84941 7.48885C10.3692 7.03324 10.9982 6.7201 11.6751 6.57996C12.2568 6.46019 12.8578 6.47146 13.4346 6.61294C14.0114 6.75443 14.5495 7.02258 15.0098 7.39793C15.47 7.77328 15.8409 8.24642 16.0955 8.78298C16.3501 9.31954 16.4821 9.90606 16.4817 10.5C16.4867 11.4132 16.1731 12.2996 15.5951 13.0066Z" fill="#F6F7FA"/>
</svg>
