<svg width="24" height="24" viewBox="0 0 24 24" fill="none" xmlns="http://www.w3.org/2000/svg">
<rect width="24" height="24" rx="12" fill="#3772FF"/>
<path d="M15.3931 5.87999C14.78 5.37572 14.062 5.01468 13.2916 4.82322C12.5211 4.63177 11.7177 4.61472 10.9398 4.77333C9.90405 4.98254 8.95379 5.49471 8.20959 6.24485C7.46538 6.99499 6.96078 7.94928 6.7598 8.98666C6.61303 9.76448 6.6397 10.5651 6.83791 11.3314C7.03611 12.0977 7.40097 12.8109 7.90647 13.42C8.37559 13.9494 8.64449 14.6263 8.66647 15.3333V17.3333C8.66647 17.8638 8.87718 18.3725 9.25225 18.7475C9.62732 19.1226 10.136 19.3333 10.6665 19.3333H13.3331C13.8636 19.3333 14.3723 19.1226 14.7473 18.7475C15.1224 18.3725 15.3331 17.8638 15.3331 17.3333V15.46C15.3555 14.6794 15.6423 13.9296 16.1465 13.3333C17.0299 12.2405 17.4463 10.8432 17.3052 9.44508C17.1642 8.04695 16.477 6.76099 15.3931 5.86666V5.87999ZM13.9998 17.3333C13.9998 17.5101 13.9296 17.6797 13.8045 17.8047C13.6795 17.9298 13.5099 18 13.3331 18H10.6665C10.4897 18 10.3201 17.9298 10.1951 17.8047C10.07 17.6797 9.9998 17.5101 9.9998 17.3333V16.6667H13.9998V17.3333ZM15.1131 12.5067C14.4428 13.3017 14.0517 14.2947 13.9998 15.3333H12.6665V13.3333C12.6665 13.1565 12.5962 12.9869 12.4712 12.8619C12.3462 12.7369 12.1766 12.6667 11.9998 12.6667C11.823 12.6667 11.6534 12.7369 11.5284 12.8619C11.4034 12.9869 11.3331 13.1565 11.3331 13.3333V15.3333H9.9998C9.98221 14.3121 9.60443 13.3298 8.93313 12.56C8.49023 12.0293 8.19239 11.3929 8.06867 10.7129C7.94495 10.0328 7.99957 9.33234 8.22719 8.67968C8.45481 8.02702 8.84768 7.44449 9.36748 6.98888C9.88728 6.53327 10.5163 6.22013 11.1931 6.07999C11.7748 5.96022 12.3759 5.97149 12.9527 6.11297C13.5295 6.25446 14.0676 6.52261 14.5278 6.89796C14.9881 7.27332 15.359 7.74645 15.6136 8.28301C15.8682 8.81957 16.0001 9.40609 15.9998 10C16.0047 10.9132 15.6912 11.7996 15.1131 12.5067Z" fill="white"/>
</svg>
