<svg width="24" height="24" viewBox="0 0 24 24" fill="none" xmlns="http://www.w3.org/2000/svg">
<rect width="24" height="24" rx="12" fill="white"/>
<path d="M15.3926 5.87999C14.7795 5.37572 14.0615 5.01468 13.2911 4.82322C12.5206 4.63177 11.7172 4.61472 10.9393 4.77333C9.90356 4.98254 8.9533 5.49471 8.2091 6.24485C7.4649 6.99499 6.96029 7.94928 6.75931 8.98666C6.61254 9.76448 6.63921 10.5651 6.83742 11.3314C7.03562 12.0977 7.40048 12.8109 7.90598 13.42C8.3751 13.9494 8.644 14.6263 8.66598 15.3333V17.3333C8.66598 17.8638 8.87669 18.3725 9.25176 18.7475C9.62684 19.1226 10.1355 19.3333 10.666 19.3333H13.3326C13.8631 19.3333 14.3718 19.1226 14.7469 18.7475C15.1219 18.3725 15.3326 17.8638 15.3326 17.3333V15.46C15.355 14.6794 15.6418 13.9296 16.146 13.3333C17.0294 12.2405 17.4458 10.8432 17.3048 9.44508C17.1637 8.04695 16.4765 6.76099 15.3926 5.86666V5.87999ZM13.9993 17.3333C13.9993 17.5101 13.9291 17.6797 13.804 17.8047C13.679 17.9298 13.5095 18 13.3326 18H10.666C10.4892 18 10.3196 17.9298 10.1946 17.8047C10.0695 17.6797 9.99931 17.5101 9.99931 17.3333V16.6667H13.9993V17.3333ZM15.1126 12.5067C14.4423 13.3017 14.0512 14.2947 13.9993 15.3333H12.666V13.3333C12.666 13.1565 12.5957 12.9869 12.4707 12.8619C12.3457 12.7369 12.1761 12.6667 11.9993 12.6667C11.8225 12.6667 11.6529 12.7369 11.5279 12.8619C11.4029 12.9869 11.3326 13.1565 11.3326 13.3333V15.3333H9.99931C9.98172 14.3121 9.60394 13.3298 8.93264 12.56C8.48974 12.0293 8.1919 11.3929 8.06818 10.7129C7.94446 10.0328 7.99908 9.33234 8.2267 8.67968C8.45433 8.02702 8.84719 7.44449 9.36699 6.98888C9.88679 6.53327 10.5158 6.22013 11.1926 6.07999C11.7743 5.96022 12.3754 5.97149 12.9522 6.11297C13.529 6.25446 14.0671 6.52261 14.5273 6.89796C14.9876 7.27332 15.3585 7.74645 15.6131 8.28301C15.8677 8.81957 15.9996 9.40609 15.9993 10C16.0042 10.9132 15.6907 11.7996 15.1126 12.5067Z" fill="#3772FF"/>
</svg>
